<svg width="24" height="24" viewBox="0 0 24 24" fill="none" xmlns="http://www.w3.org/2000/svg">
<path fill-rule="evenodd" clip-rule="evenodd" d="M11.1111 3.89999C7.12855 3.89999 3.90002 7.12852 3.90002 11.1111C3.90002 15.0937 7.12855 18.3222 11.1111 18.3222C12.8817 18.3222 14.5035 17.684 15.7585 16.6251L19.0539 19.9205C19.2932 20.1598 19.6812 20.1598 19.9205 19.9205C20.1599 19.6812 20.1599 19.2932 19.9205 19.0538L16.6252 15.7585C17.684 14.5034 18.3222 12.8817 18.3222 11.1111C18.3222 7.12852 15.0937 3.89999 11.1111 3.89999ZM5.24434 11.1111C5.24434 7.87096 7.87099 5.24431 11.1111 5.24431C14.3513 5.24431 16.9779 7.87096 16.9779 11.1111C16.9779 14.3512 14.3513 16.9779 11.1111 16.9779C7.87099 16.9779 5.24434 14.3512 5.24434 11.1111Z" fill="black"/>
</svg>
