<svg width="24" height="24" viewBox="0 0 24 24" fill="none" xmlns="http://www.w3.org/2000/svg">
<path d="M11.5649 3.01129C6.78725 3.23623 3.01824 7.18609 3.03263 11.934C3.035 13.3316 3.36961 14.7086 4.00885 15.9514L3.05693 20.541C3.04531 20.5983 3.04835 20.6577 3.06577 20.7136C3.08319 20.7695 3.11441 20.8201 3.15657 20.8607C3.19872 20.9014 3.25044 20.9307 3.30694 20.9461C3.36343 20.9614 3.42289 20.9623 3.47981 20.9485L8.0091 19.8832C9.20871 20.4761 10.5256 20.7933 11.8636 20.8118C16.7465 20.8865 20.8169 17.0374 20.969 12.1923C21.1327 6.99625 16.8149 2.76207 11.5649 3.01039V3.01129ZM16.9696 16.8376C16.3169 17.4881 15.5421 18.0033 14.6899 18.3538C13.8376 18.7042 12.9246 18.8831 12.0031 18.88C10.9189 18.8833 9.84879 18.6345 8.87735 18.153L8.24663 17.8408L5.46913 18.494L6.05396 15.677L5.74265 15.0723C5.23799 14.0941 4.97629 13.0087 4.97967 11.9079C4.97967 10.0455 5.71026 8.29367 7.03648 6.97735C8.35838 5.66886 10.1431 4.93462 12.0031 4.93404C13.8799 4.93404 15.6434 5.65923 16.9696 6.97645C17.623 7.62034 18.1415 8.38801 18.4948 9.23459C18.8482 10.0812 19.0292 10.9897 19.0273 11.907C19.0273 13.7533 18.285 15.533 16.9696 16.8385V16.8376Z" fill="black"/>
<path d="M16.3569 13.8379L14.6195 13.343C14.5074 13.3108 14.3887 13.3094 14.2759 13.3388C14.163 13.3683 14.0601 13.4275 13.978 13.5104L13.5533 13.9404C13.4655 14.0294 13.3533 14.0906 13.2309 14.1162C13.1085 14.1418 12.9812 14.1307 12.865 14.0844C12.0436 13.7542 10.3143 12.2282 9.8725 11.4644C9.81057 11.3565 9.78228 11.2325 9.79126 11.1085C9.80024 10.9844 9.84607 10.8658 9.92289 10.768L10.2936 10.2911C10.3649 10.1997 10.4101 10.0907 10.4242 9.97559C10.4383 9.86052 10.4208 9.74377 10.3737 9.63788L9.64307 7.99675C9.60174 7.90502 9.53971 7.82413 9.46184 7.76043C9.38397 7.69673 9.29239 7.65196 9.19429 7.62963C9.0962 7.60731 8.99426 7.60805 8.89649 7.63178C8.79873 7.65551 8.7078 7.7016 8.63086 7.76641C8.1459 8.174 7.57006 8.79212 7.50078 9.47862C7.37752 10.687 7.89937 12.2102 9.8734 14.0403C12.1542 16.1538 13.9816 16.4336 15.1702 16.1466C15.845 15.9847 16.3848 15.3341 16.724 14.8024C16.7783 14.7179 16.8119 14.6219 16.8223 14.5221C16.8327 14.4222 16.8195 14.3213 16.7838 14.2275C16.7481 14.1337 16.6909 14.0496 16.6167 13.9819C16.5426 13.9142 16.4536 13.8649 16.3569 13.8379Z" fill="black"/>
</svg>
